<?xml version="1.0" standalone="no"?>
<!DOCTYPE svg PUBLIC "-//W3C//DTD SVG 20010904//EN"
 "http://www.w3.org/TR/2001/REC-SVG-20010904/DTD/svg10.dtd">
<svg version="1.0" xmlns="http://www.w3.org/2000/svg"
 width="400.000000pt" height="400.000000pt" viewBox="0 0 400.000000 400.000000"
 preserveAspectRatio="xMidYMid meet">
<metadata>
Created by potrace 1.11, written by Peter Selinger 2001-2013
</metadata>
<g transform="translate(0.000000,400.000000) scale(0.100000,-0.100000)"
fill="#000000" stroke="none">
<path d="M2110 3920 c-579 -67 -1118 -425 -1426 -947 -71 -120 -134 -262 -134
-302 0 -46 73 -120 167 -169 l76 -40 -89 -27 c-108 -33 -190 -73 -226 -112
-88 -93 -17 -147 270 -207 63 -13 115 -26 118 -29 2 -2 -49 -28 -113 -57 -229
-102 -313 -157 -313 -204 0 -55 88 -90 269 -106 64 -6 140 -13 169 -16 l54 -6
-97 -58 c-232 -142 -316 -236 -271 -305 25 -39 102 -49 311 -41 l180 7 -121
-119 c-117 -115 -164 -181 -164 -229 0 -48 227 -302 380 -426 474 -383 1096
-515 1704 -361 170 43 383 131 508 210 l38 24 0 462 c0 460 0 461 -20 443 -20
-18 -20 -17 -20 18 0 21 -3 37 -6 37 -4 0 -34 -26 -68 -57 -193 -179 -424
-311 -656 -376 -103 -29 -411 -31 -540 -4 -199 43 -352 129 -520 294 l-114
113 -66 0 c-36 0 -123 -7 -195 -14 -71 -8 -131 -13 -133 -11 -2 2 52 48 120
104 132 108 158 137 161 178 4 55 -72 82 -294 103 -56 5 -103 11 -105 12 -1 2
45 32 102 68 130 80 184 130 184 170 0 52 -55 80 -249 123 l-103 23 64 29
c123 54 243 117 266 138 53 50 10 88 -175 153 -46 16 -83 31 -83 34 0 3 64 18
142 34 78 15 177 39 220 52 l78 25 52 76 c62 93 189 227 278 294 84 63 233
140 335 172 220 69 459 59 730 -29 168 -56 341 -157 518 -303 l97 -81 0 451 0
451 -31 29 c-115 107 -451 243 -719 290 -131 23 -419 33 -540 19z m-1150
-1538 c19 -8 -9 -11 -117 -11 -79 -1 -143 1 -143 4 0 24 206 29 260 7z m132
-63 c65 -33 59 -43 -23 -36 -41 3 -167 12 -281 18 -115 7 -208 16 -208 19 0
23 58 28 260 23 182 -5 221 -9 252 -24z m-249 -61 c141 -6 257 -15 257 -18 0
-4 -19 -14 -42 -23 -37 -14 -76 -15 -269 -9 -203 6 -229 9 -248 26 -46 42 -56
41 302 24z m97 -95 c-27 -12 -57 -14 -130 -10 -169 10 -163 26 10 26 148 -1
153 -1 120 -16z m75 -164 c22 -6 36 -13 30 -15 -22 -6 -295 -11 -289 -5 3 3
24 14 47 24 47 19 142 18 212 -4z m125 -59 c12 -7 12 -13 4 -27 -14 -23 -102
-26 -359 -16 l-180 8 35 22 c34 22 44 23 260 23 126 0 232 -5 240 -10z m-166
-90 c96 -1 109 -2 93 -14 -18 -14 -68 -17 -399 -30 -126 -5 -155 3 -142 38 7
18 17 19 172 13 91 -4 215 -7 276 -7z m-2 -82 c-16 -16 -195 -23 -261 -11 -41
7 -35 9 64 14 211 10 210 10 197 -3z m156 -134 c-7 -7 -310 -75 -314 -71 -2 1
29 19 68 40 67 35 78 37 162 37 49 0 87 -3 84 -6z m127 -45 c6 -6 6 -12 0 -18
-9 -7 -576 -141 -599 -141 -5 0 -3 7 4 15 37 45 80 60 304 111 216 49 267 54
291 33z m-35 -83 c0 -3 -15 -16 -33 -31 -26 -19 -88 -38 -268 -80 -236 -56
-291 -63 -297 -35 -2 12 58 29 285 82 291 67 313 72 313 64z m-126 -117 c-15
-26 -92 -48 -184 -53 l-95 -6 140 34 c77 19 141 35 143 35 2 1 0 -4 -4 -10z"/>
</g>
</svg>
